<svg width="48" height="48" viewBox="0 0 48 48" fill="none" xmlns="http://www.w3.org/2000/svg">
<path d="M0 12C0 5.37258 5.37258 0 12 0H36C42.6274 0 48 5.37258 48 12V36C48 42.6274 42.6274 48 36 48H12C5.37258 48 0 42.6274 0 36V12Z" fill="#F65077"/>
<path d="M33.4833 15.0101C33.4833 15.0101 35.9034 21.8385 34.9528 26.8472C33.6706 33.6049 27.6131 36.2488 26.561 36.4798C19.8221 37.9588 13.8127 34.8216 13.5217 37.3524C12.9316 42.4858 26.7538 36.9765 26.7538 36.9765C26.7538 36.9765 41.9716 31.3061 38.285 35.2974C34.1583 39.7652 19.3738 41.4332 16.5247 41.2536C8.1067 40.7231 11.1448 35.7015 13.7326 34.4985C13.7326 34.4985 11.8691 29.0449 16.481 26.5189C21.0924 23.9925 31.1977 24.8745 33.4833 15.0101Z" fill="white"/>
<path d="M23.1885 13.3191C22.9429 13.7443 22.5152 13.9569 22.2328 13.794C21.9508 13.6311 21.9208 13.1541 22.1664 12.729C22.4119 12.3039 22.8396 12.0913 23.1221 12.2541C23.4041 12.417 23.4341 12.894 23.1885 13.3191ZM30.6358 10.1983C30.6358 10.1983 31.1368 8.00229 30.7824 6.15943L28.1496 7.95257C28.1496 7.95257 28.4479 6.68143 28.4076 6L25.7034 8.15314C25.7034 8.15314 20.8241 6.33643 18.9264 11.1604C18.9264 11.1604 16.2396 11.0001 15.7185 11.8423C15.7185 11.8423 15.3838 16.791 19.6721 17.9074C23.5421 18.915 23.8185 22.9903 23.8185 22.9903C23.8185 22.9903 30.7558 21.1054 32.1996 17.0554C33.6431 13.0054 30.6358 10.1983 30.6358 10.1983Z" fill="white"/>
</svg>
